<svg height="1000" viewBox="0 0 1000 1000" width="1000" xmlns="http://www.w3.org/2000/svg"><g fill="#e2231a"><path d="m423.553 418.709h58.186l-30.726-49.611-56.445 89.597-25.768.003 68.697-107.543c2.938-4.343 7.972-6.987 13.472-6.987 5.389 0 10.332 2.551 13.267 6.795l68.9 107.732-25.701-.003-12.115-20.027h-58.918z"/><path d="m690.524 438.667v-93.403h-21.848v102.587c0 2.799 1.175 5.532 3.221 7.514 2.08 2.147 4.945 3.33 7.952 3.33h99.379l12.95-20.028z"/><path d="m329.696 421.965c21.242 0 38.309-17.179 38.309-38.357 0-21.188-17.066-38.344-38.309-38.344h-95.439v113.436h21.813v-93.393h72.161c10.141 0 18.354 8.176 18.354 18.305 0 10.101-8.211 18.405-18.354 18.405l-61.494-.044 65.146 56.724h31.642l-43.76-36.729h9.931"/><path d="m100.061 458.695c-31.322 0-56.736-25.342-56.736-56.68 0-31.36 25.414-56.756 56.736-56.756h65.942c31.372 0 56.626 25.394 56.626 56.756 0 31.338-25.252 56.683-56.626 56.683zm64.435-19.956c20.328 0 36.733-16.478 36.733-36.724 0-20.315-16.405-36.713-36.733-36.713h-62.976c-20.273 0-36.683 16.397-36.683 36.713 0 20.247 16.417 36.724 36.683 36.724z"/><path d="m578.686 458.695c-31.357 0-56.813-25.342-56.813-56.68 0-31.36 25.456-56.756 56.813-56.756h78.326l-12.884 20.039h-63.952c-20.361 0-36.767 16.397-36.767 36.711 0 20.247 16.405 36.724 36.767 36.724h78.561l-12.74 19.957h-67.311"/><path d="m845.435 438.739c-16.814 0-30.977-11.288-35.351-26.717h93.206l12.85-19.996h-106.054c4.356-15.468 18.534-26.722 35.349-26.722h63.996l12.789-20.039h-78.253c-31.294 0-56.688 25.394-56.688 56.754 0 31.338 25.397 56.68 56.688 56.68h67.313l12.779-19.957h-78.624"/><path d="m933.899 357.372c0-5.538 4.483-10.021 10.088-10.021 5.589 0 10.017 4.483 10.017 10.021 0 5.509-4.428 9.999-10.017 9.999-5.604 0-10.088-4.49-10.088-9.999m10.094 12.748c7.047 0 12.683-5.64 12.683-12.694 0-7.04-5.636-12.802-12.683-12.802-7.104 0-12.773 5.763-12.773 12.802-.011 7.053 5.667 12.694 12.773 12.694m-1.237-20.275c1.914 0 2.795.09 3.787.365 2.48.817 2.706 3.168 2.706 3.996 0 .185-.063.655-.133 1.176-.143.56-.441 1.722-1.77 2.476-.154.115-.264.19-.552.34l3.274 5.909h-3.192l-2.938-5.494h-1.917v5.494h-2.845v-14.262zm1.007 6.458c.866 0 1.785-.086 2.327-.915.381-.324.434-.734.434-1.195 0-.81-.467-1.424-1.114-1.752-.739-.304-1.298-.304-2.655-.304h-.734v4.172h1.743"/></g><path d="m43.324 516.257h880.737v6.282h-880.737z"/><path d="m349.922 604.209c-.306-2.561-1.221-12.972-11.958-12.972-11.756 0-16.664 12.264-16.664 27.491 0 4.399 0 25.351 15.435 25.351 6.645 0 12.983-4.183 13.296-13.996h16.663c-.301 4.399-.714 11.242-6.639 17.382-6.546 6.733-14.831 8.283-21.569 8.283-25.455 0-33.751-18.817-33.751-37.131 0-23.411 13.088-38.957 33.843-38.957 16.16 0 27.511 9.823 27.511 24.549z"/><path d="m381.5 580.181h16.159v61.247h31.697v12.574h-47.856z"/><path d="m470.734 578.536c7.879 0 18.709 1.841 25.978 10.023 7.877 9 9.394 20.554 9.394 27.813 0 10.736-3.259 22.182-9.291 28.933-8.183 9.202-20.138 10.528-26.273 10.528-9.713 0-19.438-3.068-26.184-10.128-8.075-8.583-9.101-20.837-9.101-27.601 0-19.621 8.907-39.568 35.477-39.568zm-13.389 59.714c2.249 3.072 6.034 5.935 13.39 5.935 6.444 0 10.84-2.245 13.81-6.848 2.456-3.681 5.008-9.399 5.008-21.163 0-3.569-.301-8.693-1.842-13.19-3.075-9.098-9.309-13.089-16.875-13.089-5.927 0-10.629 2.454-13.588 6.246-4.205 5.113-5.426 13.083-5.426 21.468.01 7.044 1.124 14.922 5.523 20.641z"/><path d="m534.715 580.276v44.995c0 8.077.62 18.205 16.042 18.205 2.563 0 10.23-.108 14.317-6.439 1.531-2.251 2.355-5.121 2.355-12.586v-44.172h15.448v46.123c0 21.98-17.485 29.043-32.42 29.043-7.359 0-20.854-1.64-27.817-12.776-3.568-5.626-3.783-11.351-3.783-18.215v-44.173h15.857v-.005z"/><path d="m601.838 580.276 24.438.101c4.086 0 16.572.101 25.451 6.645 9.307 6.858 12.587 18.504 12.587 29.046 0 22.698-12.163 34.561-26.172 37.12-2.769.512-5.831.812-13.303.812h-23.003zm16.059 61.552c1.725.106 4.397.208 6.24.208 6.749 0 12.571-.502 17.172-5.111 6.246-6.243 6.645-17.289 6.645-20.857 0-10.434-3.583-20.046-13.498-22.8-3.285-.929-7.461-1.437-16.567-1.03v49.591h.008z"/></svg>